<?xml version="1.0" standalone="no"?>
<!DOCTYPE svg PUBLIC "-//W3C//DTD SVG 20010904//EN"
 "http://www.w3.org/TR/2001/REC-SVG-20010904/DTD/svg10.dtd">
<svg version="1.0" xmlns="http://www.w3.org/2000/svg"
 width="4500.000000pt" height="4500.000000pt" viewBox="0 0 4500.000000 4500.000000"
 preserveAspectRatio="xMidYMid meet">

<g transform="translate(0.000000,4500.000000) scale(0.100000,-0.100000)"
fill="#000000" stroke="none">
<path d="M20310 38113 c-456 -45 -931 -194 -1375 -431 -248 -132 -303 -165
-543 -325 -138 -92 -183 -124 -322 -227 -100 -73 -337 -260 -400 -315 -20 -16
-64 -55 -100 -85 -62 -54 -101 -88 -250 -220 -40 -36 -132 -121 -204 -190 -72
-69 -167 -159 -211 -200 -238 -220 -525 -502 -525 -516 0 -23 98 -106 170
-143 83 -44 187 -74 325 -94 l90 -14 -49 -8 c-67 -11 -204 1 -301 25 -196 50
-369 170 -436 302 -34 68 -59 156 -59 211 0 38 -1 39 -27 32 -52 -12 -112 -46
-142 -80 -91 -104 -26 -278 178 -473 36 -34 77 -69 91 -76 14 -8 57 -35 95
-61 112 -76 283 -157 415 -197 19 -6 67 -20 105 -32 57 -17 95 -21 210 -20
142 0 143 0 280 50 18 6 17 4 -5 -20 -51 -57 -227 -151 -347 -187 -24 -7 -43
-16 -43 -20 0 -4 24 -19 54 -34 46 -23 68 -27 148 -28 170 -2 265 54 627 363
231 198 300 241 447 280 356 93 848 0 1379 -260 366 -180 602 -351 746 -542
87 -116 125 -199 149 -320 11 -57 20 -104 20 -104 0 -9 714 -760 724 -762 7
-2 52 41 99 95 47 54 99 111 115 126 l30 29 30 -79 c40 -103 68 -217 82 -328
12 -94 11 -104 -22 -279 -30 -160 -23 -285 21 -388 18 -43 50 -105 72 -138 21
-33 39 -65 39 -70 0 -12 -32 -79 -89 -185 -47 -87 -142 -229 -236 -351 -66
-87 -320 -345 -432 -439 -294 -248 -629 -469 -930 -615 -57 -27 -103 -52 -103
-55 0 -31 98 -132 160 -165 13 -7 31 -19 38 -27 9 -8 39 -13 91 -13 70 0 89 5
216 56 284 113 547 274 785 479 252 217 487 487 652 748 16 26 32 47 34 47 2
0 20 -33 40 -72 69 -138 125 -210 304 -388 235 -235 386 -340 585 -406 70 -23
97 -27 220 -28 99 -1 162 4 215 16 41 9 95 21 120 27 71 14 177 56 219 85 40
28 97 125 88 150 -6 16 -7 16 -317 61 -255 37 -290 45 -455 98 -108 34 -154
61 -226 129 -75 72 -115 136 -138 221 -9 36 -7 42 14 37 31 -8 191 -23 255
-24 91 -1 176 22 285 75 85 42 218 144 223 172 3 14 -6 13 -70 -9 -143 -48
-266 -41 -375 23 -56 32 -156 142 -184 202 -13 25 -32 58 -43 74 -29 40 -28
149 2 180 54 56 82 88 82 97 0 5 8 17 19 27 16 16 35 51 102 184 10 21 21 55
25 78 4 22 13 46 20 52 8 6 21 35 30 64 8 30 21 58 28 65 8 6 17 27 21 47 4
21 18 57 31 82 13 25 24 53 24 62 0 9 9 24 19 33 11 10 22 30 26 44 3 15 14
38 23 52 22 33 58 97 77 138 8 17 19 32 24 32 8 0 18 14 76 105 47 74 65 101
80 120 31 40 75 110 75 122 0 6 10 24 23 40 36 46 62 95 152 288 66 142 125
321 125 380 0 25 7 62 16 83 20 47 44 273 44 423 0 126 -25 416 -40 464 -5 17
-14 59 -20 94 -13 72 -100 344 -130 406 -11 22 -36 78 -56 125 -82 195 -251
473 -384 635 -19 23 -44 53 -54 66 -85 105 -169 193 -362 377 -38 36 -240 202
-296 243 -454 332 -1006 554 -1528 613 -122 15 -494 20 -600 9z"/>
<path d="M35050 36291 c-140 -120 -476 -460 -579 -585 -22 -28 -47 -54 -56
-58 -8 -5 -15 -14 -15 -19 0 -6 -44 -63 -98 -127 -53 -64 -104 -127 -112 -138
-8 -12 -34 -46 -57 -75 -24 -30 -49 -63 -57 -74 -68 -91 -91 -121 -101 -130
-6 -5 -29 -37 -50 -70 -22 -33 -46 -66 -53 -75 -7 -8 -24 -31 -37 -50 -13 -19
-63 -93 -112 -163 -48 -71 -97 -143 -107 -160 -11 -18 -35 -56 -55 -85 -20
-30 -44 -68 -55 -85 -10 -18 -28 -45 -39 -61 -23 -33 -143 -228 -163 -265 -17
-31 -2 -63 45 -95 74 -51 122 -66 217 -65 49 1 103 -5 119 -11 17 -7 75 -16
130 -21 55 -5 118 -15 140 -23 22 -8 56 -15 76 -16 19 0 69 -9 110 -19 41 -11
99 -23 129 -26 30 -4 84 -15 120 -25 81 -23 210 -48 315 -60 44 -6 116 -18
160 -29 117 -28 432 -80 645 -107 63 -8 131 -19 150 -24 19 -5 85 -14 145 -20
61 -5 166 -17 235 -25 126 -15 369 -38 600 -57 182 -15 1171 -16 1295 -1 55 7
165 19 245 28 236 25 379 45 475 66 50 11 124 26 165 34 143 26 427 103 534
144 37 15 28 23 -54 55 -36 14 -148 59 -250 102 -102 42 -232 96 -290 120 -58
23 -132 56 -165 72 -33 16 -71 33 -85 37 -27 8 -116 49 -329 151 -73 35 -135
64 -138 64 -5 0 -282 132 -338 161 -22 11 -132 68 -245 126 -113 59 -221 115
-240 126 -19 11 -66 36 -105 55 -38 20 -84 46 -100 58 -17 13 -48 31 -70 41
-34 16 -72 37 -170 96 -11 6 -50 31 -87 54 -37 24 -70 43 -73 43 -3 0 -18 8
-33 18 -15 10 -119 80 -232 156 -113 75 -239 162 -280 192 -41 30 -91 65 -110
78 -19 13 -46 35 -60 48 -14 14 -54 49 -90 78 -140 114 -385 377 -448 482 -13
20 -42 48 -65 62 -42 24 -101 82 -142 141 l-21 28 -84 -72z"/>
<path d="M18510 34724 c-179 -35 -323 -107 -437 -219 -45 -44 -85 -93 -88
-108 -23 -89 57 -75 215 40 256 187 546 229 871 127 85 -26 257 -107 311 -145
16 -12 31 -19 34 -17 6 7 -138 112 -226 166 -90 55 -209 106 -309 133 -74 21
-308 35 -371 23z"/>
<path d="M17910 34101 c0 -20 27 -76 44 -94 10 -9 33 -17 52 -17 19 0 34 -2
34 -5 0 -3 -10 -25 -22 -48 -20 -36 -23 -57 -23 -142 0 -88 3 -105 25 -144 50
-88 134 -130 216 -110 55 14 128 86 148 147 31 89 16 212 -33 281 -19 26 -27
29 -137 40 -138 15 -231 41 -274 77 -16 14 -30 21 -30 15z"/>
<path d="M14240 31660 c-112 -59 -258 -297 -325 -527 -40 -136 -73 -443 -48
-443 4 0 32 28 63 62 50 55 61 62 94 62 31 0 44 -7 67 -32 31 -34 36 -64 16
-98 -11 -19 -69 -90 -179 -221 -21 -24 -38 -47 -38 -51 1 -46 69 -231 124
-337 97 -187 228 -315 322 -315 32 0 87 29 120 63 73 77 153 312 176 519 16
147 16 660 0 778 -19 133 -66 299 -112 394 -42 86 -58 108 -104 144 -37 29
-125 30 -176 2z"/>
<path d="M22384 30753 c-19 -89 -72 -239 -111 -318 -163 -325 -439 -511 -924
-621 -62 -14 -231 -45 -376 -69 -144 -24 -268 -47 -274 -51 -16 -10 -5 -321
16 -439 9 -49 20 -119 25 -155 15 -107 77 -367 130 -540 16 -52 39 -129 50
-170 12 -41 31 -97 41 -125 11 -27 39 -106 61 -175 23 -69 45 -127 49 -130 7
-5 32 -70 66 -170 15 -44 36 -93 87 -199 14 -30 26 -60 26 -67 0 -15 102 -239
183 -400 150 -299 244 -447 577 -909 119 -165 231 -322 250 -349 18 -28 35
-45 37 -39 2 5 -26 237 -62 513 -36 277 -62 506 -58 510 4 4 82 26 173 50 568
148 1096 329 1417 486 139 68 193 86 193 67 0 -5 9 -62 20 -128 49 -298 105
-784 130 -1130 18 -246 24 -807 11 -1035 -47 -825 -213 -1466 -496 -1919 -95
-152 -227 -301 -344 -388 -143 -107 -212 -123 -337 -78 -393 140 -656 236
-709 259 -22 10 -80 32 -130 51 -49 18 -115 44 -145 58 -30 14 -100 42 -155
62 -55 21 -112 44 -127 51 -15 8 -81 36 -145 63 -249 103 -480 204 -593 258
-41 20 -113 51 -160 70 -47 19 -100 43 -118 53 -18 11 -66 34 -107 51 l-74 31
-141 -22 c-77 -12 -155 -26 -173 -31 -17 -5 -50 -9 -73 -9 -22 0 -63 -7 -90
-15 -27 -8 -103 -23 -169 -35 -66 -11 -136 -25 -155 -30 -19 -6 -49 -10 -65
-10 -17 0 -55 -7 -85 -15 -60 -17 -182 -45 -329 -76 -108 -22 -203 -46 -351
-89 -58 -17 -132 -35 -165 -41 -33 -5 -73 -16 -90 -24 -16 -7 -70 -25 -120
-40 -49 -14 -113 -35 -140 -46 -28 -10 -59 -19 -70 -19 -12 0 -29 -6 -40 -13
-11 -7 -56 -27 -100 -45 -251 -103 -435 -221 -600 -387 -159 -158 -232 -270
-330 -505 -15 -36 -35 -84 -46 -107 -10 -24 -19 -45 -19 -47 0 -2 -18 -33 -39
-67 -22 -35 -61 -104 -86 -154 -26 -49 -53 -97 -60 -105 -7 -8 -16 -26 -20
-39 -4 -14 -28 -63 -52 -110 -24 -47 -58 -117 -75 -156 -17 -38 -39 -89 -49
-112 -11 -23 -19 -45 -19 -50 0 -4 -11 -30 -24 -58 -13 -27 -39 -88 -56 -135
-18 -47 -39 -98 -47 -114 -9 -15 -21 -49 -29 -75 -7 -25 -27 -84 -45 -131 -17
-47 -38 -105 -45 -130 -8 -25 -22 -65 -30 -90 -9 -25 -22 -65 -30 -90 -7 -25
-22 -72 -33 -105 -11 -33 -32 -105 -46 -160 -15 -55 -36 -129 -47 -165 -10
-36 -23 -83 -28 -105 -15 -72 -108 -434 -115 -444 -3 -6 -17 -58 -30 -118 -14
-59 -34 -148 -46 -198 -11 -49 -24 -94 -29 -100 -4 -5 -15 -44 -24 -85 -9 -41
-29 -124 -45 -185 -16 -60 -46 -177 -66 -260 -21 -82 -50 -193 -66 -245 -15
-52 -42 -158 -59 -235 -17 -76 -35 -146 -40 -155 -13 -24 -47 -149 -71 -259
-11 -52 -22 -98 -25 -103 -8 -12 -73 -237 -88 -303 -13 -54 -26 -100 -80 -270
-49 -152 -71 -215 -92 -257 -13 -26 -24 -54 -24 -61 0 -26 220 -198 415 -324
105 -68 283 -166 351 -193 30 -12 54 -28 54 -35 0 -8 -12 -51 -27 -96 l-27
-82 46 -41 c104 -91 428 -246 713 -339 317 -105 581 -128 647 -57 10 11 25 20
33 20 8 0 15 7 15 16 0 9 9 18 20 21 12 3 23 17 26 32 3 14 14 60 24 101 11
41 23 109 26 150 4 41 15 90 25 109 10 18 21 63 25 100 4 36 15 91 26 120 10
30 21 80 24 110 4 31 15 70 24 86 10 17 23 64 29 105 6 41 18 95 27 120 9 25
19 75 23 111 5 44 14 75 29 94 15 18 22 42 22 69 0 22 11 73 25 111 13 39 25
87 25 108 0 24 9 52 25 75 16 23 25 51 25 74 0 20 9 60 20 89 11 28 23 79 26
113 4 35 14 72 25 88 10 14 23 55 29 90 5 36 17 79 26 96 8 18 18 58 21 89 3
32 14 72 23 88 10 17 23 56 29 87 6 32 18 69 27 82 8 14 18 54 21 88 3 35 12
73 19 85 8 13 21 51 30 85 9 35 23 74 31 87 9 13 18 54 20 90 3 38 13 79 24
96 10 17 21 51 25 75 4 25 17 71 30 102 13 32 24 76 24 99 0 23 8 55 19 73 10
17 24 58 31 91 7 33 19 73 27 89 9 16 19 58 23 94 5 38 14 68 24 75 9 7 20 41
26 80 6 38 17 78 25 90 8 12 19 53 25 90 6 38 19 81 29 95 11 15 21 50 24 78
3 29 15 69 26 90 12 21 21 55 21 75 0 21 8 47 20 62 11 14 25 52 31 84 5 32
18 78 29 103 10 25 21 66 25 92 4 25 15 55 24 65 10 11 20 42 24 75 3 31 12
67 21 80 9 14 21 51 28 84 6 32 19 70 29 83 10 12 21 39 24 60 3 20 11 44 16
55 6 10 17 40 25 66 25 83 132 298 194 388 108 157 235 273 396 362 86 48 264
115 285 108 5 -2 -39 -34 -97 -73 -107 -70 -299 -248 -288 -266 3 -5 -17 -33
-44 -61 -125 -134 -220 -376 -267 -681 -18 -115 -17 -135 10 -207 41 -113 240
-252 535 -373 508 -210 1385 -394 2100 -442 52 -4 120 -9 150 -11 30 -2 199
-6 375 -10 526 -11 975 26 1421 116 311 63 460 109 929 285 797 299 1480 526
2210 735 1067 305 1946 482 2751 554 95 9 184 20 199 26 14 5 65 13 113 16 53
4 107 15 137 27 57 24 151 93 190 138 l26 32 -7 316 -7 316 -51 60 c-28 33
-59 67 -68 75 -9 8 -32 33 -50 55 -40 49 -190 186 -303 278 -33 27 -67 55 -75
63 -57 52 -90 79 -152 123 -27 19 -48 38 -48 41 0 13 -78 88 -117 114 -21 14
-58 39 -82 57 -24 17 -54 35 -65 40 -12 5 -39 20 -61 33 -93 57 -135 80 -243
127 -335 149 -641 207 -1015 195 -290 -10 -372 -20 -562 -67 -22 -6 -74 -19
-115 -29 -115 -29 -202 -56 -235 -74 -16 -9 -37 -16 -45 -16 -8 0 -29 -9 -47
-19 -17 -11 -47 -23 -67 -26 -19 -4 -40 -13 -47 -21 -6 -8 -18 -14 -26 -14 -9
0 -41 -11 -72 -24 -31 -14 -144 -63 -252 -110 -109 -47 -200 -86 -203 -86 -3
0 17 34 44 76 28 42 50 84 50 94 0 10 6 23 14 29 8 7 18 27 22 44 3 18 17 45
30 60 13 16 24 41 24 57 0 28 22 60 41 60 5 0 9 11 9 24 0 14 11 37 25 52 14
15 25 39 25 54 0 15 10 36 25 50 18 17 25 34 25 61 0 35 2 38 48 55 26 10 56
23 67 30 11 6 35 14 54 18 19 3 42 13 51 21 9 8 41 19 70 25 29 6 61 16 69 24
9 7 24 16 34 19 9 4 17 11 17 16 0 6 19 19 43 31 55 27 83 43 104 62 10 8 33
20 51 26 29 10 96 50 173 103 15 10 39 21 53 25 14 3 26 10 26 16 0 5 15 15
34 23 39 17 70 37 172 113 80 60 130 116 139 158 4 16 14 50 23 76 14 43 14
50 -1 90 -9 24 -17 53 -17 64 0 36 -90 143 -220 262 -215 196 -469 445 -513
501 -23 30 -56 71 -74 90 -32 36 -46 56 -114 154 -111 161 -194 306 -264 462
-15 33 -42 92 -61 130 -18 39 -44 99 -58 135 -13 36 -42 110 -64 165 -78 196
-115 291 -138 355 -12 36 -35 97 -49 135 -15 39 -40 104 -55 145 -15 41 -34
93 -43 115 -8 22 -24 56 -36 75 -11 19 -21 42 -21 50 0 8 -11 36 -25 62 -14
26 -25 53 -25 60 0 7 -22 58 -50 113 -27 55 -50 105 -50 111 0 6 -9 23 -20 37
-11 13 -38 60 -61 103 -52 99 -146 252 -253 414 -33 50 -50 74 -104 149 -9 14
-24 32 -33 40 -9 9 -21 26 -27 37 -31 59 -249 316 -436 514 -290 306 -1001
935 -1107 980 -13 5 -49 25 -79 44 -30 19 -80 47 -110 62 -30 15 -66 35 -80
44 -14 10 -74 43 -135 75 -60 31 -121 63 -135 71 -14 8 -61 31 -105 52 -123
59 -288 142 -305 152 -8 6 -26 15 -40 22 -14 6 -80 37 -148 70 -153 73 -340
155 -411 179 -77 27 -99 25 -107 -8z"/>
<path d="M12181 28552 c-57 -28 -71 -58 -86 -178 -8 -60 -21 -158 -29 -219 -9
-60 -27 -198 -41 -305 -28 -215 -111 -832 -120 -895 -4 -22 -19 -139 -35 -260
-16 -121 -34 -251 -40 -290 -15 -97 -22 -93 225 -115 61 -5 148 -14 195 -20
47 -6 171 -13 275 -16 212 -7 249 -17 306 -82 27 -31 29 -37 29 -124 l0 -91
-44 -43 c-29 -30 -52 -44 -70 -44 -38 0 -95 -56 -102 -100 -3 -20 -1 -54 5
-77 10 -38 21 -47 144 -128 72 -48 161 -107 197 -132 36 -25 294 -198 573
-385 280 -187 506 -342 503 -345 -3 -3 -108 50 -233 118 -367 198 -381 205
-391 194 -9 -9 -374 -978 -553 -1466 -379 -1034 -543 -1487 -784 -2174 -68
-192 -159 -449 -203 -570 -125 -347 -192 -585 -224 -800 -20 -138 -17 -561 5
-700 48 -301 148 -589 287 -830 75 -130 131 -209 260 -370 192 -240 348 -460
482 -679 126 -207 324 -623 352 -738 3 -15 15 -94 26 -175 35 -267 83 -563 91
-563 5 0 28 14 51 30 24 17 54 38 68 48 14 9 29 22 33 29 4 7 13 13 19 13 6 0
20 9 32 21 30 29 147 119 156 119 4 0 19 11 34 25 15 14 31 25 36 25 5 0 11 8
14 18 4 9 40 53 81 96 41 43 75 82 75 87 0 4 9 10 19 14 10 3 22 18 26 32 3
15 17 37 31 50 13 12 24 31 24 42 0 11 8 26 18 33 63 47 157 259 173 388 6 47
14 93 20 102 32 60 33 531 2 653 -13 50 -17 179 -24 795 -5 500 -11 749 -19
780 -8 30 -14 261 -20 690 -11 833 -31 1187 -71 1263 -17 31 -80 97 -94 97 -6
0 -20 9 -30 20 -10 11 -23 20 -29 20 -7 0 -28 8 -48 19 -20 10 -59 21 -87 24
-27 3 -63 12 -78 20 -16 8 -76 17 -141 20 -86 5 -132 13 -195 35 -75 26 -82
31 -88 60 -8 41 14 167 33 190 12 13 17 53 21 175 4 141 7 161 25 180 11 12
23 41 27 65 4 23 14 49 22 57 8 9 21 39 29 68 7 28 20 56 27 62 8 5 17 31 21
57 4 26 15 57 26 70 10 13 21 46 25 72 4 27 15 56 25 66 9 9 20 36 24 60 4 24
15 55 25 69 11 15 22 43 26 64 4 20 15 47 25 60 9 12 20 40 24 61 4 22 16 50
26 63 10 13 21 46 25 73 4 27 15 60 26 73 10 14 21 44 25 68 4 24 15 53 24 64
10 11 21 36 25 55 4 19 15 49 25 65 10 17 21 48 25 70 4 22 15 52 25 66 11 15
22 50 26 78 4 29 14 57 25 67 10 9 21 36 25 60 3 24 15 55 25 68 11 14 22 39
26 58 3 18 14 46 24 63 9 16 20 46 24 65 4 19 15 49 26 65 10 17 21 51 25 75
3 25 15 57 25 72 11 15 22 49 25 75 4 27 17 64 29 83 12 19 25 52 28 74 4 21
12 46 20 55 8 9 17 31 20 49 6 29 3 35 -24 50 -17 9 -38 23 -47 30 -14 11 -11
12 20 6 51 -8 95 19 108 67 6 20 17 39 25 43 8 3 21 20 28 38 8 18 21 39 30
47 10 7 17 19 17 27 0 7 9 19 19 26 10 7 24 32 31 56 7 23 21 49 32 58 10 10
18 23 18 31 0 7 9 22 20 33 11 11 26 35 34 55 8 19 19 35 25 35 5 0 12 14 16
31 4 17 18 40 31 52 13 11 24 25 24 30 0 6 11 24 24 41 13 17 27 46 30 64 4
17 12 32 17 32 5 0 20 17 33 39 49 77 144 55 192 -44 41 -83 50 -86 58 -18 18
155 62 302 108 357 36 44 117 86 216 112 37 9 71 21 77 26 6 5 -48 66 -138
156 -81 81 -147 150 -147 153 0 4 17 9 38 13 36 5 41 11 90 99 56 102 70 157
53 208 -8 25 -207 229 -716 737 -766 763 -717 721 -695 588 5 -34 19 -131 30
-216 11 -85 25 -184 30 -220 5 -36 19 -135 31 -220 11 -85 22 -156 22 -157 1
-1 29 8 62 19 133 45 271 -1 376 -125 33 -40 65 -80 70 -90 11 -20 12 -19 -72
-36 -31 -7 -90 -28 -130 -47 -96 -46 -239 -187 -285 -282 l-31 -63 -62 73
c-36 43 -69 94 -82 127 -20 54 -27 151 -14 202 3 13 -33 305 -80 649 -47 344
-85 630 -85 636 0 26 -66 49 -725 253 -110 35 -263 82 -340 106 -304 95 -302
94 -354 67z m2574 -1836 c157 -42 255 -160 255 -308 0 -74 -25 -59 -78 48 -34
68 -84 117 -151 148 -39 18 -65 21 -171 21 -105 0 -135 -4 -184 -23 -141 -52
-262 -155 -318 -270 -27 -54 -34 -81 -37 -145 -5 -129 28 -190 154 -282 36
-27 65 -51 65 -56 0 -13 -105 17 -159 46 -63 34 -95 71 -129 143 -22 48 -24
64 -20 147 3 82 8 101 40 166 65 130 163 228 299 299 141 73 311 99 434 66z"/>
<path d="M33645 28084 c-324 -12 -696 -31 -765 -39 -19 -3 -161 -14 -315 -25
-326 -24 -750 -58 -815 -66 -207 -25 -357 -56 -510 -105 -101 -33 -316 -141
-410 -208 -249 -175 -268 -190 -380 -302 -110 -110 -161 -168 -200 -224 -19
-27 -40 -54 -46 -60 -20 -17 -120 -208 -138 -261 -43 -131 -111 -457 -127
-609 -6 -55 -17 -138 -25 -184 -8 -47 -11 -88 -6 -93 4 -4 2143 -7 4753 -6
4738 3 4744 3 4741 23 -2 11 -7 58 -13 105 -5 47 -19 137 -30 200 -10 63 -24
151 -30 195 -6 43 -16 91 -24 105 -7 14 -15 48 -19 75 -11 84 -67 254 -104
319 -19 34 -43 77 -54 96 -11 19 -28 44 -37 56 -9 12 -36 48 -60 80 -92 122
-283 302 -430 406 -154 109 -445 258 -586 301 -208 63 -422 97 -725 112 -63 3
-173 12 -245 20 -71 8 -222 21 -335 30 -113 8 -259 20 -325 26 -66 6 -273 15
-460 20 -187 6 -398 14 -470 18 -206 12 -1447 9 -1810 -5z"/>
<path d="M29858 25338 c-3 -24 0 -53 5 -66 8 -16 7 -26 -1 -34 -7 -7 -12 -34
-12 -60 l0 -48 4799 0 4799 0 0 125 -1 125 -4792 0 -4793 0 -4 -42z"/>
<path d="M29883 24546 c3 -35 15 -119 26 -187 11 -68 23 -162 27 -209 3 -46
13 -103 21 -125 8 -22 18 -74 23 -115 11 -100 57 -295 81 -346 10 -23 19 -49
19 -59 0 -10 10 -34 22 -54 31 -49 54 -90 72 -126 8 -17 24 -39 35 -49 12 -11
21 -25 21 -31 0 -7 7 -19 17 -26 9 -8 24 -27 33 -42 52 -85 279 -314 379 -382
203 -138 241 -162 364 -222 227 -113 430 -172 677 -197 415 -44 1059 -96 1390
-113 294 -15 45 -21 -883 -22 l-928 -1 -48 -25 c-45 -22 -91 -69 -91 -93 0 -5
-7 -15 -15 -22 -42 -35 -84 -281 -60 -354 7 -22 16 -64 20 -93 4 -31 14 -58
26 -69 10 -9 19 -23 19 -31 0 -8 26 -39 57 -69 l57 -54 1890 -2 c1459 -2 1896
-6 1912 -15 20 -11 21 -16 11 -65 -5 -29 -16 -60 -24 -70 -8 -9 -21 -38 -29
-64 -8 -26 -20 -55 -28 -63 -8 -9 -17 -32 -21 -51 -4 -19 -16 -43 -27 -53 -10
-10 -21 -32 -25 -48 -3 -16 -13 -35 -23 -42 -9 -7 -25 -27 -34 -44 -9 -18 -20
-33 -25 -33 -5 0 -14 -14 -20 -32 -11 -30 -132 -156 -235 -243 -26 -22 -55
-47 -64 -57 -21 -20 -133 -109 -158 -125 -15 -9 54 -12 321 -13 565 -1 676
-15 859 -107 l69 -35 -5 40 c-4 28 -1 44 9 55 9 9 19 39 24 69 6 36 15 57 29
67 12 8 20 24 20 40 0 15 11 42 24 60 13 18 27 48 30 67 4 19 16 40 26 47 11
6 20 17 20 23 0 6 10 19 21 30 12 10 28 34 36 52 7 17 18 32 24 32 5 0 15 13
22 29 11 27 83 117 115 145 7 6 23 21 34 34 12 12 25 22 29 22 3 0 37 29 74
65 38 36 74 65 82 65 7 0 16 7 19 15 3 8 22 19 42 26 21 7 48 20 61 30 13 11
29 19 36 19 7 0 15 7 19 15 3 8 12 15 19 15 8 0 35 11 61 25 26 14 56 25 66
25 11 0 43 10 72 22 51 21 66 21 474 22 466 1 439 -3 507 70 80 86 114 221 97
391 -6 61 -16 126 -22 145 -14 45 -81 141 -116 167 -58 42 -68 43 -736 44
-353 0 -663 4 -691 9 l-50 7 60 2 c291 6 1548 113 1653 141 21 5 64 16 97 25
107 27 199 57 255 82 111 50 241 117 252 130 6 7 16 13 22 13 7 0 27 11 46 25
19 14 40 25 48 25 7 0 37 18 65 40 29 22 88 68 132 102 95 73 292 268 332 330
15 23 31 45 34 48 6 4 51 70 86 125 57 90 116 241 134 345 6 30 16 73 24 95
26 73 76 413 84 576 7 125 12 164 25 178 9 10 16 30 16 44 l0 27 -4776 0
-4777 0 6 -64z"/>
<path d="M27400 20415 c-233 -29 -546 -88 -745 -140 -1963 -511 -3541 -1995
-4229 -3975 -144 -413 -270 -968 -307 -1355 -57 -590 302 -1129 775 -1162 142
-10 141 -10 1161 307 840 261 1362 419 1638 496 9 3 17 0 17 -7 0 -28 -83
-151 -142 -209 -72 -73 -76 -88 -77 -275 -1 -214 42 -409 134 -603 200 -421
616 -745 1120 -871 217 -54 508 -75 715 -52 723 82 1319 472 1605 1049 61 125
95 221 127 364 31 137 33 416 4 548 -52 240 -163 470 -313 648 -30 35 -40 53
-31 56 16 5 234 26 269 26 21 0 38 -19 99 -112 118 -178 203 -396 242 -618 20
-113 17 -423 -5 -535 -96 -490 -372 -904 -811 -1218 -160 -114 -285 -183 -480
-262 -863 -348 -1859 -182 -2447 408 -219 220 -362 464 -438 745 -25 94 -51
270 -51 355 0 39 -4 57 -12 57 -26 0 -412 -341 -693 -609 -71 -69 -229 -222
-350 -342 l-220 -216 -115 -41 c-1119 -399 -2600 -645 -4580 -761 -1316 -78
-3043 -85 -4715 -21 -386 15 -934 39 -985 44 l-45 4 92 -87 c83 -80 180 -152
258 -195 17 -9 49 -28 73 -41 24 -13 53 -27 65 -31 12 -3 36 -12 52 -20 41
-19 142 -54 188 -65 89 -22 126 -31 197 -50 86 -24 202 -51 310 -74 41 -9 98
-22 125 -30 28 -8 79 -19 115 -25 36 -6 94 -20 130 -30 75 -21 190 -47 270
-60 30 -5 105 -21 165 -35 61 -14 144 -33 185 -41 41 -8 122 -24 180 -35 58
-12 143 -29 190 -39 107 -24 283 -56 379 -70 41 -6 78 -13 83 -17 6 -3 60 -13
121 -23 144 -23 280 -46 387 -65 47 -8 124 -20 171 -25 48 -6 100 -14 115 -20
33 -10 344 -55 449 -65 39 -3 106 -12 150 -20 44 -8 125 -19 180 -24 55 -6
123 -15 150 -20 28 -5 115 -15 195 -21 80 -6 195 -17 255 -25 61 -8 175 -17
255 -20 80 -4 199 -13 265 -21 288 -34 1497 -38 1630 -4 22 5 112 14 200 20
88 5 198 16 245 24 47 8 121 20 165 26 44 6 98 17 120 25 22 8 54 14 72 15 51
0 279 78 314 107 8 7 19 13 23 13 5 0 21 11 38 25 16 14 40 25 52 25 55 0 235
159 551 487 476 494 541 556 568 549 53 -13 351 -48 532 -61 105 -9 224 -20
265 -25 69 -9 296 -24 755 -50 99 -6 371 -15 605 -20 234 -6 499 -14 590 -20
91 -5 269 -9 396 -10 127 0 258 -3 291 -6 l60 -7 18 -76 c89 -388 142 -562
239 -781 21 -47 47 -105 58 -130 11 -25 24 -54 30 -65 6 -11 34 -63 61 -115
27 -52 64 -120 82 -150 19 -30 41 -69 50 -87 9 -18 23 -37 31 -44 8 -6 14 -15
14 -20 0 -19 168 -248 300 -407 120 -146 427 -441 559 -537 15 -11 43 -35 62
-53 19 -17 37 -32 41 -32 3 0 30 -20 60 -44 29 -23 79 -57 110 -75 31 -18 62
-39 68 -46 7 -8 18 -15 25 -15 7 0 18 -7 26 -16 7 -9 44 -32 82 -52 38 -21 90
-49 116 -64 25 -15 57 -32 71 -38 14 -6 52 -25 85 -42 82 -43 81 -43 155 -73
36 -14 72 -30 81 -34 42 -23 182 -73 349 -126 90 -28 271 -72 330 -80 30 -4
71 -13 92 -21 20 -7 70 -15 110 -19 40 -3 111 -14 158 -23 72 -14 146 -17 475
-16 273 0 405 4 440 13 28 6 92 16 144 21 51 5 114 16 140 24 25 8 71 18 101
21 128 16 544 140 650 195 58 30 157 70 172 70 8 0 18 4 23 9 6 5 62 36 125
69 63 32 138 73 165 90 28 17 66 38 85 47 19 9 37 19 40 23 3 4 23 19 45 33
261 169 319 213 524 395 178 158 379 372 493 523 124 165 251 354 295 441 13
25 34 63 48 85 34 55 136 264 174 355 18 41 39 91 48 110 27 59 131 384 152
477 96 414 115 578 116 978 0 237 -4 344 -18 455 -28 225 -113 626 -146 688
-6 11 -17 47 -25 79 -18 72 -52 169 -72 205 -8 15 -21 47 -29 70 -18 57 -59
153 -72 170 -5 7 -35 69 -66 137 -51 112 -54 123 -34 117 12 -4 58 -16 102
-28 44 -11 87 -26 95 -33 8 -7 30 -16 48 -20 18 -4 38 -12 45 -19 6 -7 62 -36
122 -65 61 -29 117 -57 125 -62 8 -5 26 -14 40 -20 14 -6 48 -25 75 -43 95
-63 458 -226 502 -226 8 0 26 -6 41 -14 16 -8 84 -25 152 -37 164 -30 387 -33
505 -6 81 19 175 58 195 82 6 8 24 17 40 20 37 8 118 126 137 199 27 105 13
264 -42 473 -50 193 -60 225 -84 268 -11 22 -21 46 -21 53 0 7 -7 23 -14 35
-27 41 -66 171 -55 182 6 6 196 12 533 15 481 5 526 6 543 23 11 9 24 17 30
17 5 0 21 10 35 23 14 12 51 45 82 72 31 28 56 55 56 61 0 5 11 25 24 43 20
27 25 48 31 139 8 133 -4 199 -49 266 -43 65 -64 87 -129 135 -107 80 -58 76
-919 79 l-766 3 -81 117 c-224 327 -566 728 -926 1087 -678 678 -1467 1269
-2325 1745 -472 261 -1150 563 -1561 695 -79 26 -192 64 -250 86 -273 99 -850
248 -1279 330 -675 128 -1530 204 -1850 164z m3361 -5115 c190 -9 313 -26 454
-61 593 -150 1108 -502 1467 -1004 142 -198 295 -507 361 -725 83 -274 112
-498 104 -808 -5 -241 -22 -362 -82 -589 -128 -486 -441 -976 -826 -1290 -388
-317 -814 -503 -1314 -575 -121 -17 -513 -17 -630 1 -172 25 -325 60 -467 107
-677 220 -1222 704 -1526 1355 -56 120 -134 335 -130 357 2 11 165 82 189 82
4 0 12 -21 18 -47 17 -66 96 -262 144 -358 183 -366 485 -698 833 -916 219
-138 506 -253 756 -303 339 -69 713 -60 1043 25 866 221 1535 953 1686 1844
26 156 36 451 20 605 -83 805 -559 1491 -1276 1840 -210 102 -380 157 -625
202 -111 20 -155 23 -390 22 -247 0 -274 -2 -405 -28 -76 -15 -179 -38 -228
-52 -49 -14 -92 -23 -94 -20 -5 5 -70 158 -79 187 -4 12 14 21 83 42 169 51
237 67 372 87 219 32 267 34 542 20z m-2380 -138 c-5 -10 -20 -23 -33 -30 -13
-6 -205 -46 -428 -87 -223 -42 -679 -128 -1014 -190 -335 -63 -614 -115 -619
-115 -25 0 6 10 118 39 605 157 1211 283 1780 371 224 35 208 34 196 12z
m4136 -77 c340 -71 677 -161 1030 -276 l152 -50 62 -107 c196 -335 336 -697
423 -1092 9 -41 21 -91 26 -110 14 -56 38 -235 51 -380 16 -189 6 -592 -20
-785 -102 -747 -405 -1415 -897 -1975 -561 -639 -1317 -1063 -2149 -1205 -232
-39 -358 -49 -620 -49 -262 0 -388 10 -620 49 -1221 208 -2259 1025 -2766
2178 -68 153 -209 599 -209 659 0 17 17 18 323 18 287 1 412 7 500 26 18 4 28
1 31 -8 2 -7 27 -80 56 -163 317 -913 1097 -1620 2040 -1846 397 -96 866 -105
1255 -24 476 99 870 288 1274 612 31 25 61 50 66 57 6 6 30 29 55 50 120 105
330 355 445 531 312 477 467 999 467 1575 1 472 -102 914 -303 1310 -61 121
-79 150 -188 315 -162 245 -391 488 -640 679 -40 31 -70 56 -67 56 3 0 103
-20 223 -45z m-3752 -179 c13 -13 27 -36 31 -51 9 -34 -15 -86 -47 -102 -21
-11 -367 -78 -989 -193 -85 -16 -528 -99 -985 -186 -456 -86 -858 -159 -892
-162 -56 -4 -64 -2 -87 21 -35 35 -36 95 -3 133 25 29 -12 22 1177 244 146 27
348 65 450 84 169 32 657 124 1040 196 85 16 164 31 175 33 58 13 106 7 130
-17z m274 -362 c25 -21 31 -33 31 -66 0 -46 -12 -73 -41 -88 -11 -6 -90 -24
-177 -40 -86 -16 -314 -59 -507 -95 -192 -36 -611 -115 -930 -175 -319 -60
-820 -154 -1114 -210 -294 -55 -550 -100 -569 -100 -47 0 -92 46 -92 94 0 57
32 85 120 102 94 18 544 103 1305 246 325 61 880 166 1235 233 355 68 659 123
677 124 21 1 42 -8 62 -25z m1739 15 c200 -22 367 -66 542 -142 536 -232 937
-720 1058 -1287 197 -921 -342 -1841 -1245 -2124 -359 -112 -756 -107 -1117
15 -569 193 -1007 649 -1172 1222 -19 65 -34 124 -34 132 0 7 30 32 68 56 133
87 392 305 454 384 11 14 24 25 29 25 5 0 9 -42 9 -94 0 -489 333 -951 805
-1116 128 -44 213 -61 350 -67 582 -27 1096 358 1237 927 29 120 37 370 14
495 -81 443 -396 808 -817 945 -342 112 -713 67 -1026 -125 -48 -29 -49 -27
-29 54 28 108 48 286 50 439 l1 155 83 28 c221 74 505 104 740 78z m-1851
-503 c23 -20 28 -32 28 -70 0 -68 -22 -85 -142 -108 -132 -25 -1728 -326
-1823 -343 -41 -8 -133 -25 -205 -39 -418 -81 -729 -136 -765 -136 -57 0 -90
34 -90 93 0 46 23 78 65 91 19 5 415 81 955 181 308 58 700 131 1035 195 149
28 342 64 430 81 88 16 214 41 280 53 161 32 197 32 232 2z m-235 -503 c39
-37 39 -94 1 -132 -25 -24 -50 -31 -233 -65 -113 -21 -250 -47 -305 -57 -55
-11 -194 -37 -310 -59 -115 -21 -474 -89 -797 -149 -323 -61 -606 -111 -628
-111 -81 0 -120 93 -67 156 20 23 40 30 148 50 325 60 1497 282 1769 334 360
68 383 70 422 33z m-563 -448 c58 -30 64 -117 11 -156 -17 -13 -149 -42 -430
-94 -620 -117 -616 -116 -643 -106 -33 13 -67 58 -67 88 0 33 29 81 55 90 32
11 987 191 1018 192 15 1 41 -6 56 -14z"/>
<path d="M19564 20095 c4 -11 13 -42 21 -70 7 -27 20 -68 28 -90 8 -22 29 -87
47 -145 18 -58 54 -172 81 -255 58 -180 139 -442 169 -545 12 -41 38 -115 57
-165 19 -49 43 -115 55 -145 11 -30 28 -73 38 -95 40 -87 80 -184 80 -194 0
-5 23 -57 50 -115 28 -58 50 -110 50 -116 0 -6 9 -28 19 -48 28 -52 67 -140
84 -187 33 -89 55 -142 75 -180 12 -22 22 -47 22 -55 0 -8 11 -39 25 -68 14
-30 25 -61 25 -69 0 -8 8 -27 19 -41 10 -15 24 -53 31 -85 6 -33 18 -73 25
-91 8 -18 21 -63 30 -101 8 -38 20 -74 25 -80 5 -6 14 -42 20 -80 6 -39 18
-97 27 -130 73 -279 76 -896 7 -1185 -9 -36 -24 -105 -35 -153 -10 -49 -22
-94 -28 -100 -5 -7 -13 -30 -17 -52 -4 -22 -20 -74 -36 -115 -29 -75 -42 -104
-92 -211 -14 -31 -26 -60 -26 -66 0 -5 -21 -43 -48 -84 -26 -41 -53 -87 -60
-102 -22 -50 -224 -299 -318 -392 -73 -72 -190 -176 -213 -189 -8 -5 -24 -17
-34 -26 -24 -23 -165 -99 -197 -107 -14 -3 -36 -14 -49 -25 -13 -10 -31 -18
-40 -18 -9 0 -31 -9 -49 -20 -18 -11 -38 -20 -45 -20 -6 0 -34 -12 -62 -25
-27 -14 -59 -25 -69 -25 -11 0 -27 -6 -35 -14 -9 -7 -38 -21 -66 -29 -89 -28
-149 -48 -195 -66 -25 -10 -60 -23 -77 -30 -18 -6 -45 -15 -60 -21 -56 -19
-129 -42 -178 -55 -27 -7 -68 -20 -90 -29 -22 -8 -80 -26 -130 -41 -163 -47
-229 -66 -280 -82 -27 -9 -75 -22 -105 -29 -75 -18 -161 -40 -245 -64 -95 -27
-178 -48 -250 -64 -106 -24 -199 -47 -250 -63 -82 -26 -332 -70 -341 -60 -2 1
-6 34 -10 72 -3 40 -17 93 -31 125 -50 110 -68 144 -96 183 -32 44 -24 44
-160 4 -129 -39 -255 -58 -381 -58 -132 0 -225 18 -313 62 l-62 31 -113 -56
c-123 -61 -322 -131 -339 -120 -8 5 -10 52 -7 155 l5 147 -31 6 c-17 2 -85 8
-151 11 -213 11 -303 46 -455 174 -52 44 -98 81 -101 81 -4 0 -16 -22 -27 -48
-24 -55 -77 -138 -113 -174 -53 -55 -187 -157 -215 -164 -16 -4 -36 -12 -44
-19 -8 -6 -62 -26 -120 -45 -58 -18 -127 -41 -154 -51 -27 -11 -61 -19 -76
-19 -15 0 -47 -7 -71 -16 -24 -8 -84 -23 -134 -34 -220 -45 -250 -52 -258 -59
-4 -4 1 -31 12 -59 16 -40 18 -57 10 -84 -6 -18 -11 -76 -11 -129 -1 -77 4
-110 22 -162 71 -200 271 -334 612 -409 178 -39 748 -36 1213 8 627 58 1360
191 2065 373 85 23 241 61 345 87 105 25 291 71 415 101 547 134 989 326 1278
556 57 44 78 54 200 89 701 201 1176 351 1752 556 124 44 235 83 246 86 17 5
30 30 58 115 104 314 157 698 127 926 -65 491 -434 1362 -1054 2485 -347 629
-730 1263 -1090 1805 -121 183 -146 217 -133 180z"/>
<path d="M35960 19780 c43 -144 43 -126 35 -1788 -7 -1536 -6 -1584 12 -1578
10 3 88 26 173 50 85 25 185 56 223 70 37 14 77 26 90 26 28 1 82 47 92 80 10
32 56 90 72 90 7 0 17 9 23 19 5 11 19 22 29 26 11 3 23 15 26 26 4 10 12 19
18 19 15 1 57 67 95 146 l27 59 0 845 0 845 -33 85 c-18 46 -43 102 -55 125
-26 48 -123 170 -165 206 -23 22 -31 38 -36 82 -10 75 -55 131 -210 259 -181
149 -200 165 -317 271 -60 53 -111 97 -113 97 -2 0 4 -27 14 -60z"/>
<path d="M7780 18263 c-277 -21 -661 -84 -905 -148 -55 -15 -134 -35 -175 -46
-81 -21 -175 -50 -255 -79 -27 -10 -75 -26 -105 -35 -83 -27 -359 -135 -445
-175 -22 -10 -74 -33 -115 -51 -206 -88 -763 -390 -930 -504 -25 -17 -52 -34
-60 -38 -8 -4 -33 -20 -56 -35 -22 -15 -62 -40 -88 -57 -26 -16 -100 -67 -164
-112 -65 -45 -148 -104 -185 -130 -83 -57 -112 -104 -104 -171 5 -49 31 -90
68 -109 18 -10 148 -13 529 -13 382 0 538 -4 640 -15 74 -9 252 -19 395 -24
273 -10 283 -11 478 -73 l67 -21 -32 -28 c-18 -16 -51 -33 -72 -40 -22 -6 -49
-17 -60 -24 -12 -7 -39 -16 -61 -20 -22 -4 -60 -16 -85 -27 -85 -38 -185 -89
-215 -108 -16 -11 -48 -29 -70 -40 -124 -64 -326 -195 -475 -308 -161 -123
-244 -196 -385 -337 -163 -163 -216 -221 -318 -350 -209 -263 -418 -607 -532
-875 -10 -25 -33 -79 -51 -120 -93 -221 -197 -596 -239 -860 -43 -275 -59
-727 -35 -985 77 -811 367 -1528 872 -2157 118 -146 276 -316 396 -425 109
-99 308 -261 373 -304 20 -13 63 -41 95 -63 33 -21 71 -47 86 -57 15 -11 31
-19 36 -19 5 0 17 -9 27 -20 10 -11 23 -20 30 -20 6 0 39 -18 73 -40 126 -82
414 -220 602 -289 117 -42 339 -110 425 -130 226 -51 296 -64 385 -72 52 -4
113 -14 135 -21 55 -18 800 -18 895 0 36 7 103 17 149 22 47 6 101 15 120 21
20 5 70 16 111 23 179 32 509 131 637 192 40 19 76 34 81 34 4 0 25 9 47 20
22 11 46 20 55 20 9 0 20 4 25 9 6 5 58 34 116 64 58 31 143 76 189 101 45 25
86 46 91 46 4 0 12 6 16 13 8 12 49 40 144 97 23 14 50 32 60 40 10 8 34 26
54 40 263 185 582 493 799 772 63 80 196 266 196 274 0 3 10 20 23 37 34 48
43 64 128 217 49 88 144 279 173 348 14 34 38 89 52 122 29 69 110 321 148
460 68 253 126 690 126 959 0 85 2 93 18 86 31 -12 155 -35 322 -61 129 -20
207 -26 355 -27 l190 -2 61 32 c78 41 147 119 175 199 25 73 26 188 3 419
-105 1087 -535 2223 -1213 3207 -196 283 -391 529 -512 643 -142 134 -263 237
-384 326 -639 470 -1381 745 -2215 819 -104 9 -620 11 -730 3z m-915 -1939
c445 -102 948 -270 1362 -457 230 -104 621 -314 772 -416 11 -7 8 -16 -15 -47
-15 -22 -30 -41 -31 -43 -2 -3 -36 12 -76 32 -184 92 -468 182 -715 226 -339
61 -752 52 -1111 -25 -784 -168 -1471 -665 -1884 -1364 -428 -726 -513 -1642
-225 -2435 203 -559 578 -1048 1063 -1387 416 -290 881 -460 1390 -509 156
-15 535 -6 675 16 403 63 771 196 1100 400 423 261 784 641 1022 1078 156 286
265 602 313 909 8 56 20 128 26 158 5 30 12 129 16 220 20 554 -128 1116 -420
1595 -138 226 -237 349 -463 572 l-175 171 23 26 23 26 120 -102 c162 -138
321 -293 479 -469 154 -171 176 -198 297 -361 148 -198 162 -216 256 -353 49
-71 116 -168 149 -215 33 -47 77 -110 99 -140 73 -104 227 -304 321 -416 51
-61 51 -61 57 -150 8 -106 -6 -399 -29 -574 -38 -308 -132 -667 -247 -946
-399 -973 -1222 -1750 -2212 -2090 -1256 -432 -2628 -162 -3625 712 -672 590
-1105 1386 -1234 2274 -72 496 -36 1061 99 1540 283 1003 985 1860 1900 2317
206 103 681 279 725 268 8 -2 87 -20 175 -41z m2321 -1000 c58 -41 92 -70 87
-77 -3 -7 -27 -43 -53 -82 -110 -163 -282 -429 -288 -443 -7 -20 -1030 -1582
-1046 -1600 -10 -10 -22 -8 -62 13 -76 39 -176 57 -253 44 -35 -5 -65 -8 -66
-7 -2 2 28 46 67 98 131 179 634 885 883 1240 136 195 254 360 262 366 7 6 59
78 116 160 190 275 246 354 254 354 2 0 47 -30 99 -66z m-1176 -34 c132 -19
306 -62 465 -115 84 -28 265 -104 265 -112 0 -4 -57 -91 -115 -174 l-25 -37
-88 38 c-169 73 -386 132 -597 162 -134 19 -475 16 -615 -6 -662 -100 -1228
-459 -1593 -1011 -176 -266 -295 -572 -354 -910 -25 -145 -25 -547 0 -700 119
-718 532 -1309 1162 -1663 219 -123 475 -211 745 -258 130 -22 460 -30 603
-14 682 74 1292 443 1672 1010 449 671 508 1538 155 2275 -104 217 -255 430
-437 614 -68 68 -123 126 -123 127 0 9 143 204 150 204 14 0 220 -202 298
-293 218 -253 389 -553 487 -853 189 -575 178 -1153 -32 -1704 -387 -1014
-1375 -1674 -2453 -1637 -310 11 -538 56 -821 163 -784 296 -1379 972 -1574
1789 -132 550 -71 1152 168 1657 294 620 798 1082 1442 1321 380 141 807 185
1215 127z m-26 -749 c111 -23 294 -77 313 -93 12 -10 1 -33 -40 -83 -15 -19
-232 -328 -264 -376 -18 -27 -34 -49 -35 -49 -2 0 -28 7 -58 15 -161 43 -391
39 -584 -9 -325 -83 -627 -332 -776 -640 -90 -186 -122 -330 -121 -542 0 -341
138 -652 390 -884 216 -199 474 -306 766 -317 357 -13 663 105 909 351 234
235 356 528 356 861 0 299 -111 591 -303 802 -31 33 -48 60 -45 71 5 19 336
472 345 472 11 0 134 -120 192 -188 489 -568 576 -1389 219 -2046 -178 -326
-416 -566 -736 -739 -276 -150 -551 -220 -867 -220 -490 0 -929 181 -1280 528
-338 333 -525 755 -542 1220 -11 314 44 585 177 860 266 551 768 921 1385
1020 132 21 466 13 599 -14z"/>
</g>
</svg>
